<?xml version="1.0" encoding="UTF-8"?>
<svg id="katman_1" xmlns="http://www.w3.org/2000/svg" version="1.1" viewBox="0 0 138 151.34">
  <!-- Generator: Adobe Illustrator 30.0.0, SVG Export Plug-In . SVG Version: 2.1.1 Build 123)  -->
  <defs>
    <style>
      .st0 {
        fill: #d41b29;
      }
    </style>
  </defs>
  <path class="st0" d="M20.38,48.64c24.55-11.94,40.94-18.6,49.15-19.97L19.3,11.67l1.08,36.97Z"/>
  <path class="st0" d="M96.09,38.53c8.86,12.37,18.54,30.83,29.06,55.36l.11-47.62-32.18-10.3,3.01,2.56Z"/>
  <path class="st0" d="M88.89,81.9l9.44,18.15-33.62,16.25c-5.89,3.57-10.32,2.34-13.29-3.69-2.74-5.74-1.29-10.2,4.34-13.39l33.13-17.32Z"/>
  <polygon class="st0" points="125 109.11 125.77 120.25 90.42 126.74 125 109.11"/>
  <path class="st0" d="M20.02,73.19l39.38-18.89c7.32-3.13,13.31-2.1,17.96,3.06l3.26,6.7-39.13,19.15c-17.09,9.44-22.32,22.12-15.67,38.04,2.36,6.54,5.23,10.76,10.43,15.86l-15.85,2.55-.37-66.48Z"/>
</svg>