<?xml version="1.0" encoding="UTF-8"?>
<svg id="katman_1" xmlns="http://www.w3.org/2000/svg" version="1.1" viewBox="0 0 138 43">
  <!-- Generator: Adobe Illustrator 30.0.0, SVG Export Plug-In . SVG Version: 2.1.1 Build 123)  -->
  <defs>
    <style>
      .st0 {
        fill: #231f20;
        fill-rule: evenodd;
      }

      .st1 {
        fill: #ec1c24;
      }
    </style>
  </defs>
  <path class="st1" d="M5.88,16.95c5.29-2.57,8.83-4.01,10.6-4.31l-10.83-3.67.23,7.97Z"/>
  <path class="st1" d="M22.21,14.77c1.91,2.67,4,6.65,6.27,11.94l.02-10.27-6.94-2.22.65.55Z"/>
  <path class="st1" d="M20.65,24.12l2.04,3.91-7.25,3.5c-1.27.77-2.23.51-2.87-.8-.59-1.24-.28-2.2.94-2.89l7.14-3.73Z"/>
  <polygon class="st1" points="28.44 29.99 28.61 32.39 20.98 33.79 28.44 29.99"/>
  <path class="st1" d="M5.8,22.24l8.49-4.07c1.58-.67,2.87-.45,3.87.66l.7,1.45-8.44,4.13c-3.69,2.04-4.81,4.77-3.38,8.2.51,1.41,1.13,2.32,2.25,3.42l-3.42.55-.08-14.34Z"/>
  <path class="st0" d="M38.69,25.13l2.87-7.77,3.19,7.77h-6.06ZM38.95,12.25l-7.77,20.09h4.84l1.48-4.03h8.58l1.65,4.03h4.9l-8.58-20.09h-5.1Z"/>
  <polygon class="st0" points="55.56 12.25 55.56 32.34 60.2 32.34 60.2 22.89 67.94 32.34 73.69 32.34 65.19 22.02 73.28 12.25 67.86 12.25 60.2 21.5 60.2 12.25 55.56 12.25"/>
  <path class="st0" d="M86.31,13.09c-.76-.37-1.55-.65-2.37-.82-.82-.17-1.66-.26-2.5-.25-1.22,0-2.32.27-3.32.78-1,.51-1.8,1.22-2.4,2.12-.6.9-.91,1.93-.92,3.1,0,.65.11,1.28.36,1.9.24.61.65,1.21,1.21,1.79.3.31.6.59.89.82.29.23.7.49,1.22.8.52.3,1.27.72,2.24,1.26.72.41,1.17.79,1.37,1.15.2.36.28.68.26.97.02.46-.19.94-.61,1.43-.43.49-1.18.76-2.27.8-.84-.01-1.66-.19-2.46-.54s-1.54-.79-2.2-1.32v4.46c1.12.39,2.07.66,2.85.81.78.16,1.52.23,2.22.23,2.08-.03,3.77-.57,5.06-1.62s1.95-2.45,1.99-4.21c-.02-.9-.2-1.68-.52-2.34-.33-.65-.67-1.15-1.04-1.49-.27-.28-.56-.53-.86-.74-.3-.22-.69-.47-1.2-.76-.5-.29-1.2-.69-2.09-1.19-.62-.35-1.08-.71-1.37-1.1-.29-.39-.43-.81-.43-1.28-.01-.16.04-.42.15-.76.11-.35.37-.67.78-.96.4-.3,1.03-.46,1.89-.47.84.02,1.62.19,2.35.49.72.31,1.3.61,1.74.93v-3.97Z"/>
  <path class="st0" d="M95.57,25.13l2.87-7.77,3.19,7.77h-6.06ZM95.83,12.25l-7.77,20.09h4.84l1.48-4.03h8.58l1.65,4.03h4.9l-8.58-20.09h-5.1Z"/>
  <polygon class="st0" points="112.41 12.25 112.41 32.34 117.05 32.34 117.05 19.79 122.36 26.49 123.05 26.49 128.36 19.79 128.36 32.34 133 32.34 133 12.25 128.86 12.25 122.68 20.02 116.53 12.25 112.41 12.25"/>
</svg>